HIERARCHY
ROOT Hips
{
	OFFSET 0.000000 0.000000 0.000000 
	CHANNELS 6 Xposition Yposition Zposition Yrotation Zrotation Xrotation 
	JOINT Lumbar
	{
		OFFSET 0.000000 0.000000 0.000000 
		CHANNELS 3 Zrotation Xrotation Yrotation
		JOINT Neck
		{
			OFFSET 0.000000 0.445665 0.000000 
			CHANNELS 3 Zrotation Xrotation Yrotation
			End Site
			{
				OFFSET 0.000000 0.227535 0.000000 
			}
		}
		JOINT RightShoulder
		{
			OFFSET 0.019635 0.377685 0.194865 
			CHANNELS 3 Zrotation Xrotation Yrotation
			JOINT RightElbow
			{
				OFFSET 0.000000 -0.243375 0.000000 
				CHANNELS 2 Zrotation Yrotation
				JOINT RightWrist
				{
					OFFSET 0.000000 -0.264825 0.000000 
					CHANNELS 2 Zrotation Xrotation
					End Site
					{
						OFFSET 0.006600 -0.176220 0.000990 
					}
				}
			}
		}
		JOINT LeftShoulder
		{
			OFFSET 0.019635 0.377685 -0.194865 
			CHANNELS 3 Zrotation Xrotation Yrotation
			JOINT LeftElbow
			{
				OFFSET 0.000000 -0.243375 0.000000 
				CHANNELS 2 Zrotation Yrotation
				JOINT LeftWrist
				{
					OFFSET 0.000000 -0.264825 0.000000 
					CHANNELS 2 Zrotation Xrotation
					End Site
					{
						OFFSET 0.006600 -0.176220 -0.000990 
					}
				}
			}
		}
	}
	JOINT RightHip
	{
		OFFSET 0.052140 -0.069960 0.075570 
		CHANNELS 3 Zrotation Xrotation Yrotation
		JOINT RightKnee
		{
			OFFSET 0.000000 -0.402270 0.000000 
			CHANNELS 1 Zrotation
			JOINT RightAnkle
			{
				OFFSET 0.000000 -0.404085 0.000000 
				CHANNELS 3 Zrotation Xrotation Yrotation
				End Site
				{
					OFFSET 0.204105 -0.089430 0.008415 
				}
			}
		}
	}
	JOINT LeftHip
	{
		OFFSET 0.052140 -0.069960 -0.075570 
		CHANNELS 3 Zrotation Xrotation Yrotation
		JOINT LeftKnee
		{
			OFFSET 0.000000 -0.402270 0.000000 
			CHANNELS 1 Zrotation
			JOINT LeftAnkle
			{
				OFFSET 0.000000 -0.404085 0.000000 
				CHANNELS 3 Zrotation Xrotation Yrotation
				End Site
				{
					OFFSET 0.204105 -0.089430 -0.008415 
				}
			}
		}
	}
}
MOTION
Frames: 11
Frame Time: 0.02
0.00025 -9e-05 -0.00174 23.93418 -20.68782 -6.13312 43.30807 2.63715 -7.09606 -10.67012 -1.69367 -1.13035 -22.071 -15.02611 6.83601 41.73335 90.63582 5.32206 1.20785 -29.179 14.05906 -7.22776 38.07363 -160.30374 26.93343 -11.70961 33.61539 0.50733 -17.75174 -20.77258 -7.29379 -3.05782 -3.74154 34.64189 8.66652 9.54764 -26.81554 -8.84202 3.73 4.17423
0.00061 -5e-05 -0.00131 24.19257 -20.64306 -6.16802 43.30846 2.58129 -6.92506 -10.77606 -1.68824 -1.1316 -22.50015 -14.99636 6.58918 41.50496 90.69296 5.33985 1.22108 -29.39025 14.2527 -7.14977 38.28608 -154.03781 25.32351 -10.69162 33.53125 0.5853 -17.59175 -20.76878 -7.31192 -3.0865 -3.75794 34.60867 8.74011 9.62253 -26.80663 -8.8229 3.70479 4.16039
0.00097 -1e-05 -0.00089 24.45054 -20.5984 -6.20285 43.30884 2.52552 -6.75448 -10.88172 -1.68288 -1.13284 -22.92826 -14.96674 6.34311 41.27724 90.74983 5.3576 1.23427 -29.60076 14.44587 -7.07176 38.49827 -147.79652 23.72011 -9.6776 33.44728 0.6631 -17.43247 -20.76498 -7.32999 -3.11511 -3.7743 34.5756 8.81338 9.69631 -26.79777 -8.80388 3.67969 4.14661
0.00133 3e-05 -0.00046 24.70819 -20.55377 -6.23765 43.30923 2.46983 -6.584 -10.98734 -1.67747 -1.13408 -23.35617 -14.9371 6.09704 41.04956 90.80677 5.37533 1.24746 -29.81134 14.63893 -6.99395 38.71011 -141.55115 22.11551 -8.66295 33.36338 0.74083 -17.27302 -20.76118 -7.34807 -3.14371 -3.79065 34.54248 8.88672 9.7708 -26.78889 -8.78483 3.65457 4.13281
0.00169 7e-05 -3e-05 24.96613 -20.50903 -6.27249 43.30963 2.41407 -6.41313 -11.09321 -1.67195 -1.13532 -23.78492 -14.90731 5.85023 40.82116 90.86402 5.39313 1.26067 -30.02267 14.83244 -6.9163 38.92212 -135.27805 20.5035 -7.64383 33.27933 0.81873 -17.11274 -20.75738 -7.36619 -3.17238 -3.80705 34.50919 8.96041 9.84677 -26.77997 -8.76565 3.62933 4.11895
0.00205 0.00011 0.0004 25.22416 -20.46455 -6.30731 43.30994 2.35828 -6.24316 -11.19846 -1.66694 -1.13656 -24.21159 -14.87803 5.60573 40.59489 90.9201 5.41076 1.27383 -30.23145 15.0249 -6.83757 39.1347 -129.1033 18.91808 -6.64049 33.19552 0.8963 -16.95555 -20.75359 -7.38417 -3.20089 -3.82334 34.47658 9.03283 9.91599 -26.77122 -8.74696 3.60453 4.10533
0.00241 0.00015 0.00082 25.48168 -20.41962 -6.34214 43.31048 2.30264 -6.0716 -11.30481 -1.66094 -1.1378 -24.64223 -14.84778 5.35682 40.3647 90.97842 5.42868 1.28708 -30.44515 15.21918 -6.761 39.34577 -122.74083 17.28186 -5.60704 33.11134 0.97441 -16.79244 -20.74979 -7.40242 -3.22967 -3.83981 34.44265 9.10767 9.99854 -26.76215 -8.72734 3.57888 4.09125
0.00277 0.00019 0.00125 25.73975 -20.37506 -6.37696 43.31072 2.24682 -5.90146 -11.41018 -1.65577 -1.13904 -25.06876 -14.81842 5.11202 40.13789 91.0348 5.4464 1.30024 -30.65429 15.41192 -6.68258 39.55843 -116.54531 15.69075 -4.60037 33.02749 1.05211 -16.63453 -20.74599 -7.42044 -3.25822 -3.85613 34.40991 9.1804 10.06914 -26.75335 -8.70854 3.55399 4.07758
0.00313 0.00023 0.00169 25.99836 -20.33111 -6.41176 43.31092 2.19089 -5.73314 -11.51427 -1.65195 -1.14027 -25.49229 -14.79014 4.87197 39.91606 91.08831 5.4636 1.31334 -30.858 15.60233 -6.60128 39.77242 -110.57664 14.1613 -3.63007 32.94404 1.129 -16.48398 -20.74221 -7.43809 -3.28641 -3.87222 34.37872 9.25008 10.12363 -26.74498 -8.69085 3.53015 4.06449
0.00348 0.00028 0.00208 26.25346 -20.28413 -6.44665 43.31234 2.13593 -5.55462 -11.6255 -1.64138 -1.14156 -25.93916 -14.75562 4.60378 39.66811 91.15681 5.48295 1.32691 -31.09337 15.80483 -6.53471 39.97694 -103.37116 12.29665 -2.46143 32.85828 1.2096 -16.29412 -20.73835 -7.45759 -3.31643 -3.8895 34.33891 9.33586 10.26628 -26.73443 -8.6671 3.50062 4.04827
0.00384 0.0003 0.00257 26.51615 -20.24325 -6.48137 43.31055 2.07871 -5.39747 -11.72178 -1.64439 -1.14273 -26.33284 -14.73429 4.39548 39.47368 91.19468 5.49832 1.33941 -31.26169 15.98264 -6.43826 40.20252 -98.73131 11.12664 -1.70426 32.77743 1.283 -16.18523 -20.73466 -7.47339 -3.34276 -3.90436 34.31707 9.38861 10.22592 -26.7283 -8.65595 3.48285 4.03851
